<svg width="160" height="157" viewBox="0 0 160 157" fill="none" xmlns="http://www.w3.org/2000/svg">
<circle cx="5" cy="5" r="5" fill="#FF777E"/>
<circle cx="95" cy="5" r="5" fill="#FF777E"/>
<circle cx="5" cy="35" r="5" fill="#FF777E"/>
<circle cx="95" cy="35" r="5" fill="#FF777E"/>
<circle cx="5" cy="65" r="5" fill="#FF777E"/>
<circle cx="95" cy="65" r="5" fill="#FF777E"/>
<circle cx="35" cy="5" r="5" fill="#FF777E"/>
<circle cx="125" cy="5" r="5" fill="#FF777E"/>
<circle cx="35" cy="35" r="5" fill="#FF777E"/>
<circle cx="125" cy="35" r="5" fill="#FF777E"/>
<circle cx="35" cy="65" r="5" fill="#FF777E"/>
<circle cx="125" cy="65" r="5" fill="#FF777E"/>
<circle cx="65" cy="5" r="5" fill="#FF777E"/>
<circle cx="155" cy="5" r="5" fill="#FF777E"/>
<circle cx="65" cy="35" r="5" fill="#FF777E"/>
<circle cx="155" cy="35" r="5" fill="#FF777E"/>
<circle cx="65" cy="65" r="5" fill="#FF777E"/>
<circle cx="155" cy="65" r="5" fill="#FF777E"/>
<circle cx="5" cy="92" r="5" fill="#FF777E"/>
<circle cx="95" cy="92" r="5" fill="#FF777E"/>
<circle cx="5" cy="122" r="5" fill="#FF777E"/>
<circle cx="95" cy="122" r="5" fill="#FF777E"/>
<circle cx="5" cy="152" r="5" fill="#FF777E"/>
<circle cx="95" cy="152" r="5" fill="#FF777E"/>
<circle cx="35" cy="92" r="5" fill="#FF777E"/>
<circle cx="125" cy="92" r="5" fill="#FF777E"/>
<circle cx="35" cy="122" r="5" fill="#FF777E"/>
<circle cx="125" cy="122" r="5" fill="#FF777E"/>
<circle cx="35" cy="152" r="5" fill="#FF777E"/>
<circle cx="125" cy="152" r="5" fill="#FF777E"/>
<circle cx="65" cy="92" r="5" fill="#FF777E"/>
<circle cx="155" cy="92" r="5" fill="#FF777E"/>
<circle cx="65" cy="122" r="5" fill="#FF777E"/>
<circle cx="155" cy="122" r="5" fill="#FF777E"/>
<circle cx="65" cy="152" r="5" fill="#FF777E"/>
<circle cx="155" cy="152" r="5" fill="#FF777E"/>
</svg>
