<svg width="174" height="174" viewBox="0 0 174 174" fill="none" xmlns="http://www.w3.org/2000/svg">
<g filter="url(#filter0_d_41_334)">
<path d="M87.4904 44.3012C98.4384 35.8076 114.475 42.3507 116.357 56.0788L123.574 108.731C125.456 122.459 111.77 133.076 98.9408 127.842L49.7339 107.766C36.9043 102.531 34.5523 85.371 45.5003 76.8774L87.4904 44.3012Z" fill="#DA5A79"/>
</g>
<g filter="url(#filter1_d_41_334)">
<circle cx="86.5" cy="86.5" r="15.1184" stroke="#DEDEDE" stroke-width="2"/>
<path d="M74.8947 87.1447H75.0237" stroke="#DEDEDE" stroke-width="2" stroke-linecap="round"/>
<path d="M98.1053 87.1447H98.2342" stroke="#DEDEDE" stroke-width="2" stroke-linecap="round"/>
<path d="M86.5 98.75H86.6289" stroke="#DEDEDE" stroke-width="2" stroke-linecap="round"/>
<path d="M86.5 74.8947H86.6289" stroke="#DEDEDE" stroke-width="2" stroke-linecap="round"/>
<path d="M79.7303 79.7303L84.1364 84.3462C85.6459 85.9276 87.7369 86.8224 89.9232 86.8224H91.6579" stroke="#DEDEDE" stroke-width="2" stroke-linecap="round"/>
<circle cx="86.5" cy="86.5" r="19.6316" stroke="#DEDEDE" stroke-width="2"/>
<circle cx="86.5" cy="86.5" r="23.5" stroke="#DEDEDE" stroke-width="2"/>
<path d="M63.2895 86.5H66.5132" stroke="#DEDEDE" stroke-width="2" stroke-linecap="round"/>
<path d="M106.487 86.5H109.711" stroke="#DEDEDE" stroke-width="2" stroke-linecap="round"/>
<path d="M86.5 106.487L86.5929 109.709" stroke="#DEDEDE" stroke-width="2" stroke-linecap="round"/>
<path d="M86.5 63.2895L86.5929 66.5118" stroke="#DEDEDE" stroke-width="2" stroke-linecap="round"/>
</g>
<defs>
<filter id="filter0_d_41_334" x="34.5304" y="40.503" width="93.2179" height="96.6993" filterUnits="userSpaceOnUse" color-interpolation-filters="sRGB">
<feFlood flood-opacity="0" result="BackgroundImageFix"/>
<feColorMatrix in="SourceAlpha" type="matrix" values="0 0 0 0 0 0 0 0 0 0 0 0 0 0 0 0 0 0 127 0" result="hardAlpha"/>
<feOffset dy="4"/>
<feGaussianBlur stdDeviation="2"/>
<feComposite in2="hardAlpha" operator="out"/>
<feColorMatrix type="matrix" values="0 0 0 0 0 0 0 0 0 0 0 0 0 0 0 0 0 0 0.25 0"/>
<feBlend mode="normal" in2="BackgroundImageFix" result="effect1_dropShadow_41_334"/>
<feBlend mode="normal" in="SourceGraphic" in2="effect1_dropShadow_41_334" result="shape"/>
</filter>
<filter id="filter1_d_41_334" x="58" y="62" width="57" height="57" filterUnits="userSpaceOnUse" color-interpolation-filters="sRGB">
<feFlood flood-opacity="0" result="BackgroundImageFix"/>
<feColorMatrix in="SourceAlpha" type="matrix" values="0 0 0 0 0 0 0 0 0 0 0 0 0 0 0 0 0 0 127 0" result="hardAlpha"/>
<feOffset dy="4"/>
<feGaussianBlur stdDeviation="2"/>
<feComposite in2="hardAlpha" operator="out"/>
<feColorMatrix type="matrix" values="0 0 0 0 0 0 0 0 0 0 0 0 0 0 0 0 0 0 0.25 0"/>
<feBlend mode="normal" in2="BackgroundImageFix" result="effect1_dropShadow_41_334"/>
<feBlend mode="normal" in="SourceGraphic" in2="effect1_dropShadow_41_334" result="shape"/>
</filter>
</defs>
</svg>
