<svg width="174" height="174" viewBox="0 0 174 174" fill="none" xmlns="http://www.w3.org/2000/svg">
<g filter="url(#filter0_d_41_331)">
<path d="M87.4904 44.3012C98.4384 35.8076 114.475 42.3507 116.357 56.0788L123.574 108.731C125.456 122.459 111.77 133.076 98.9408 127.842L49.7339 107.766C36.9043 102.531 34.5523 85.371 45.5003 76.8774L87.4904 44.3012Z" fill="#8D59C2"/>
</g>
<g filter="url(#filter1_d_41_331)">
<rect x="89.4074" y="76.1528" width="21.5926" height="30.8472" rx="7" stroke="#DEDEDE" stroke-width="2"/>
<path d="M89.3148 80.2292H93.5517C94.2991 80.2292 94.9898 80.6275 95.3642 81.2743V81.2743C95.7386 81.9212 96.4293 82.3195 97.1767 82.3195H103.148C103.958 82.3195 104.72 81.9307 105.194 81.2743V81.2743C105.669 80.6179 106.43 80.2292 107.241 80.2292H111.093" stroke="#DEDEDE" stroke-width="2" stroke-linecap="round"/>
<path d="M99.9012 102.028H100.022" stroke="#DEDEDE" stroke-width="2" stroke-linecap="round"/>
<path d="M111.093 102.326H103.531" stroke="#DEDEDE" stroke-width="2" stroke-linecap="round"/>
<path d="M96.2716 102.326H75.6728C74.3535 102.326 73.284 103.396 73.284 104.715V104.715C73.284 106.035 74.3535 107.104 75.6728 107.104H96.2716" stroke="#DEDEDE" stroke-width="2" stroke-linecap="round"/>
<path d="M89.0123 96.0556H71C66.5817 96.0556 63 92.4738 63 88.0556V73C63 68.5817 66.5817 65 71 65H103.093C107.511 65 111.093 68.5817 111.093 73V79.4926" stroke="#DEDEDE" stroke-width="2" stroke-linecap="square"/>
<path d="M63.3025 79.632H77.821" stroke="#DEDEDE" stroke-width="2" stroke-linecap="round"/>
<path d="M77.5185 102.326L80.5432 96.0555" stroke="#DEDEDE" stroke-width="2" stroke-linecap="round"/>
<path d="M63.6049 91.5764H89.0123" stroke="#DEDEDE" stroke-width="2" stroke-linecap="round"/>
</g>
<defs>
<filter id="filter0_d_41_331" x="34.5304" y="40.503" width="93.2179" height="96.6993" filterUnits="userSpaceOnUse" color-interpolation-filters="sRGB">
<feFlood flood-opacity="0" result="BackgroundImageFix"/>
<feColorMatrix in="SourceAlpha" type="matrix" values="0 0 0 0 0 0 0 0 0 0 0 0 0 0 0 0 0 0 127 0" result="hardAlpha"/>
<feOffset dy="4"/>
<feGaussianBlur stdDeviation="2"/>
<feComposite in2="hardAlpha" operator="out"/>
<feColorMatrix type="matrix" values="0 0 0 0 0 0 0 0 0 0 0 0 0 0 0 0 0 0 0.25 0"/>
<feBlend mode="normal" in2="BackgroundImageFix" result="effect1_dropShadow_41_331"/>
<feBlend mode="normal" in="SourceGraphic" in2="effect1_dropShadow_41_331" result="shape"/>
</filter>
<filter id="filter1_d_41_331" x="58" y="64" width="58.0926" height="52.1042" filterUnits="userSpaceOnUse" color-interpolation-filters="sRGB">
<feFlood flood-opacity="0" result="BackgroundImageFix"/>
<feColorMatrix in="SourceAlpha" type="matrix" values="0 0 0 0 0 0 0 0 0 0 0 0 0 0 0 0 0 0 127 0" result="hardAlpha"/>
<feOffset dy="4"/>
<feGaussianBlur stdDeviation="2"/>
<feComposite in2="hardAlpha" operator="out"/>
<feColorMatrix type="matrix" values="0 0 0 0 0 0 0 0 0 0 0 0 0 0 0 0 0 0 0.25 0"/>
<feBlend mode="normal" in2="BackgroundImageFix" result="effect1_dropShadow_41_331"/>
<feBlend mode="normal" in="SourceGraphic" in2="effect1_dropShadow_41_331" result="shape"/>
</filter>
</defs>
</svg>
