<svg width="174" height="174" viewBox="0 0 174 174" fill="none" xmlns="http://www.w3.org/2000/svg">
<g filter="url(#filter0_d_41_333)">
<path d="M87.4904 44.3012C98.4384 35.8076 114.475 42.3507 116.357 56.0788L123.574 108.731C125.456 122.459 111.77 133.076 98.9408 127.842L49.7339 107.766C36.9043 102.531 34.5523 85.371 45.5003 76.8774L87.4904 44.3012Z" fill="#DA5A79"/>
</g>
<g filter="url(#filter1_d_41_333)">
<path d="M107.494 101.027H107.631" stroke="#DEDEDE" stroke-width="2" stroke-linecap="round"/>
<path d="M86.1558 103.838H86.2935" stroke="#DEDEDE" stroke-width="2" stroke-linecap="round"/>
<rect x="61" y="69" width="51" height="38.0541" rx="7" stroke="#DEDEDE" stroke-width="2"/>
<path d="M61.0325 100.676H103.364" stroke="#DEDEDE" stroke-width="2" stroke-linecap="round"/>
<path d="M78.5887 81.6983L75.4713 84.8809C75.0956 85.2645 75.0899 85.8762 75.4583 86.2668L83.0413 94.3061C83.4277 94.7158 84.076 94.7257 84.4748 94.3281L97.8436 80.9971C98.2323 80.6096 98.236 79.9813 97.8519 79.5893L94.0851 75.7437C93.6978 75.3483 93.0629 75.3427 92.6687 75.7312L84.0866 84.1906C83.7045 84.5673 83.0931 84.5753 82.7013 84.2086L79.9864 81.6679C79.5897 81.2966 78.969 81.3101 78.5887 81.6983Z" stroke="#DEDEDE" stroke-width="2" stroke-linecap="round"/>
</g>
<defs>
<filter id="filter0_d_41_333" x="34.5304" y="40.503" width="93.2179" height="96.6993" filterUnits="userSpaceOnUse" color-interpolation-filters="sRGB">
<feFlood flood-opacity="0" result="BackgroundImageFix"/>
<feColorMatrix in="SourceAlpha" type="matrix" values="0 0 0 0 0 0 0 0 0 0 0 0 0 0 0 0 0 0 127 0" result="hardAlpha"/>
<feOffset dy="4"/>
<feGaussianBlur stdDeviation="2"/>
<feComposite in2="hardAlpha" operator="out"/>
<feColorMatrix type="matrix" values="0 0 0 0 0 0 0 0 0 0 0 0 0 0 0 0 0 0 0.25 0"/>
<feBlend mode="normal" in2="BackgroundImageFix" result="effect1_dropShadow_41_333"/>
<feBlend mode="normal" in="SourceGraphic" in2="effect1_dropShadow_41_333" result="shape"/>
</filter>
<filter id="filter1_d_41_333" x="56" y="68" width="61" height="60" filterUnits="userSpaceOnUse" color-interpolation-filters="sRGB">
<feFlood flood-opacity="0" result="BackgroundImageFix"/>
<feColorMatrix in="SourceAlpha" type="matrix" values="0 0 0 0 0 0 0 0 0 0 0 0 0 0 0 0 0 0 127 0" result="hardAlpha"/>
<feOffset dy="4"/>
<feGaussianBlur stdDeviation="2"/>
<feComposite in2="hardAlpha" operator="out"/>
<feColorMatrix type="matrix" values="0 0 0 0 0 0 0 0 0 0 0 0 0 0 0 0 0 0 0.25 0"/>
<feBlend mode="normal" in2="BackgroundImageFix" result="effect1_dropShadow_41_333"/>
<feBlend mode="normal" in="SourceGraphic" in2="effect1_dropShadow_41_333" result="shape"/>
</filter>
</defs>
</svg>
