<svg width="77" height="74" viewBox="0 0 77 74" fill="none" xmlns="http://www.w3.org/2000/svg">
<path d="M69 47H69.2" stroke="url(#paint0_linear_21_1461)" stroke-width="3" stroke-linecap="round"/>
<path d="M38 51H38.2" stroke="url(#paint1_linear_21_1461)" stroke-width="3" stroke-linecap="round"/>
<path d="M28 64.5H48C51.5899 64.5 54.5 67.4101 54.5 71V72.5H21.5V71C21.5 67.4101 24.4101 64.5 28 64.5Z" stroke="url(#paint2_linear_21_1461)" stroke-width="3"/>
<rect x="31.5" y="55.5" width="13" height="9" stroke="url(#paint3_linear_21_1461)" stroke-width="3"/>
<rect x="1.5" y="1.5" width="74" height="54" rx="6.5" stroke="url(#paint4_linear_21_1461)" stroke-width="3"/>
<path d="M1.5 46.5H63" stroke="url(#paint5_linear_21_1461)" stroke-width="3" stroke-linecap="round"/>
<path d="M27.323 19.177L22.1939 24.3061C21.8086 24.6914 21.8027 25.3143 22.1807 25.7069L33.8014 37.7745C34.1864 38.1744 34.8234 38.1841 35.2205 37.7963L55.2762 18.207C55.6745 17.8179 55.6783 17.1783 55.2845 16.7845L49.1948 10.6948C48.8091 10.3091 48.1855 10.3037 47.7931 10.6825L34.6768 23.3465C34.2965 23.7137 33.6962 23.7215 33.3065 23.3643L28.7058 19.147C28.3111 18.7852 27.7015 18.7985 27.323 19.177Z" stroke="url(#paint6_linear_21_1461)" stroke-width="3" stroke-linecap="round"/>
<defs>
<linearGradient id="paint0_linear_21_1461" x1="69.1" y1="47" x2="69.1" y2="48" gradientUnits="userSpaceOnUse">
<stop stop-color="#FF5582"/>
<stop offset="0.364583" stop-color="#FF777F"/>
<stop offset="0.697917" stop-color="#FFA37A"/>
<stop offset="1" stop-color="#FFC776"/>
</linearGradient>
<linearGradient id="paint1_linear_21_1461" x1="38.1" y1="51" x2="38.1" y2="52" gradientUnits="userSpaceOnUse">
<stop stop-color="#FF5582"/>
<stop offset="0.364583" stop-color="#FF777F"/>
<stop offset="0.697917" stop-color="#FFA37A"/>
<stop offset="1" stop-color="#FFC776"/>
</linearGradient>
<linearGradient id="paint2_linear_21_1461" x1="38" y1="63" x2="38" y2="74" gradientUnits="userSpaceOnUse">
<stop stop-color="#FF5582"/>
<stop offset="0.364583" stop-color="#FF777F"/>
<stop offset="0.697917" stop-color="#FFA37A"/>
<stop offset="1" stop-color="#FFC776"/>
</linearGradient>
<linearGradient id="paint3_linear_21_1461" x1="38" y1="54" x2="38" y2="66" gradientUnits="userSpaceOnUse">
<stop stop-color="#FF5582"/>
<stop offset="0.364583" stop-color="#FF777F"/>
<stop offset="0.697917" stop-color="#FFA37A"/>
<stop offset="1" stop-color="#FFC776"/>
</linearGradient>
<linearGradient id="paint4_linear_21_1461" x1="38.5" y1="0" x2="38.5" y2="57" gradientUnits="userSpaceOnUse">
<stop stop-color="#FF5582"/>
<stop offset="0.364583" stop-color="#FF777F"/>
<stop offset="0.697917" stop-color="#FFA37A"/>
<stop offset="1" stop-color="#FFC776"/>
</linearGradient>
<linearGradient id="paint5_linear_21_1461" x1="32.25" y1="46.5" x2="32.25" y2="47.5" gradientUnits="userSpaceOnUse">
<stop stop-color="#FF5582"/>
<stop offset="0.364583" stop-color="#FF777F"/>
<stop offset="0.697917" stop-color="#FFA37A"/>
<stop offset="1" stop-color="#FFC776"/>
</linearGradient>
<linearGradient id="paint6_linear_21_1461" x1="38.75" y1="10" x2="38.75" y2="38.5" gradientUnits="userSpaceOnUse">
<stop stop-color="#FF5582"/>
<stop offset="0.364583" stop-color="#FF777F"/>
<stop offset="0.697917" stop-color="#FFA37A"/>
<stop offset="1" stop-color="#FFC776"/>
</linearGradient>
</defs>
</svg>
