<svg width="174" height="174" viewBox="0 0 174 174" fill="none" xmlns="http://www.w3.org/2000/svg">
<g filter="url(#filter0_d_41_336)">
<path d="M87.4904 44.3012C98.4384 35.8076 114.475 42.3507 116.357 56.0788L123.574 108.731C125.456 122.459 111.77 133.076 98.9408 127.842L49.7339 107.766C36.9043 102.531 34.5523 85.371 45.5003 76.8774L87.4904 44.3012Z" fill="#8498F7"/>
</g>
<g filter="url(#filter1_d_41_336)">
<path d="M104.988 85.3418C108.368 85.3418 111.088 82.5699 111.088 79.1772C111.088 75.7845 108.368 73.0126 104.988 73.0126C101.607 73.0126 98.8875 75.7845 98.8875 79.1772C98.8875 82.5699 101.607 85.3418 104.988 85.3418Z" fill="#8498F7" stroke="#DEDEDE" stroke-width="2"/>
<path d="M113 98.0725V93.6097C113 89.0085 109.27 85.2784 104.669 85.2784C100.068 85.2784 96.3375 89.0085 96.3375 93.6097V98.0725C96.3375 98.8853 96.9965 99.5443 97.8093 99.5443H111.528C112.341 99.5443 113 98.8853 113 98.0725Z" fill="#8498F7" stroke="#DEDEDE" stroke-width="2"/>
<path d="M96.7 88.5696C100.081 88.5696 102.8 85.7977 102.8 82.405C102.8 79.0123 100.081 76.2405 96.7 76.2405C93.3192 76.2405 90.6 79.0123 90.6 82.405C90.6 85.7977 93.3192 88.5696 96.7 88.5696Z" fill="#8498F7" stroke="#DEDEDE" stroke-width="2"/>
<path d="M104.712 101.3V96.8376C104.712 92.2364 100.982 88.5063 96.3812 88.5063C91.78 88.5063 88.05 92.2364 88.05 96.8376V101.3C88.05 102.113 88.7089 102.772 89.5218 102.772H103.241C104.054 102.772 104.712 102.113 104.712 101.3Z" fill="#8498F7" stroke="#DEDEDE" stroke-width="2"/>
<path d="M68.65 85.3418C72.0307 85.3418 74.75 82.5699 74.75 79.1772C74.75 75.7845 72.0307 73.0126 68.65 73.0126C65.2692 73.0126 62.55 75.7845 62.55 79.1772C62.55 82.5699 65.2692 85.3418 68.65 85.3418Z" fill="#8498F7" stroke="#DEDEDE" stroke-width="2"/>
<path d="M76.6625 98.0725V93.6097C76.6625 89.0085 72.9325 85.2784 68.3313 85.2784C63.73 85.2784 60 89.0085 60 93.6097V98.0725C60 98.8853 60.6589 99.5443 61.4718 99.5443H75.1907C76.0036 99.5443 76.6625 98.8853 76.6625 98.0725Z" fill="#8498F7" stroke="#DEDEDE" stroke-width="2"/>
<path d="M77.575 88.5696C80.9557 88.5696 83.675 85.7977 83.675 82.405C83.675 79.0123 80.9557 76.2405 77.575 76.2405C74.1942 76.2405 71.475 79.0123 71.475 82.405C71.475 85.7977 74.1942 88.5696 77.575 88.5696Z" fill="#8498F7" stroke="#DEDEDE" stroke-width="2"/>
<path d="M85.5875 101.3V96.8376C85.5875 92.2364 81.8575 88.5063 77.2562 88.5063C72.655 88.5063 68.925 92.2364 68.925 96.8376V101.3C68.925 102.113 69.5839 102.772 70.3968 102.772H84.1157C84.9286 102.772 85.5875 102.113 85.5875 101.3Z" fill="#8498F7" stroke="#DEDEDE" stroke-width="2"/>
<path d="M87.1375 91.7974C90.5182 91.7974 93.2375 89.0256 93.2375 85.6329C93.2375 82.2402 90.5182 79.4683 87.1375 79.4683C83.7567 79.4683 81.0375 82.2402 81.0375 85.6329C81.0375 89.0256 83.7567 91.7974 87.1375 91.7974Z" fill="#8498F7" stroke="#DEDEDE" stroke-width="2"/>
<path d="M95.15 104.528V100.065C95.15 95.4642 91.42 91.7342 86.8187 91.7342C82.2175 91.7342 78.4875 95.4642 78.4875 100.065V104.528C78.4875 105.341 79.1464 106 79.9593 106H93.6782C94.4911 106 95.15 105.341 95.15 104.528Z" fill="#8498F7" stroke="#DEDEDE" stroke-width="2"/>
<path fill-rule="evenodd" clip-rule="evenodd" d="M88.8456 65.1524C88.7691 64.6686 89.0947 64.213 89.5724 64.1355C90.0502 64.058 90.5001 64.3877 90.5767 64.8715C90.6532 65.3554 90.3276 65.8109 89.8498 65.8885C89.3721 65.966 88.9222 65.6363 88.8456 65.1524ZM93.0345 63.5737C92.5568 63.6512 92.2311 64.1068 92.3077 64.5906C92.3843 65.0745 92.8342 65.4042 93.3119 65.3267C93.7897 65.2491 94.1153 64.7935 94.0387 64.3097C93.9622 63.8259 93.5123 63.4962 93.0345 63.5737ZM96.4966 63.0119C96.0188 63.0894 95.6932 63.545 95.7698 64.0288C95.8463 64.5126 96.2962 64.8424 96.774 64.7649C97.2518 64.6873 97.5774 64.2317 97.5008 63.7479C97.4243 63.2641 96.9744 62.9344 96.4966 63.0119ZM100.791 67.7089C100.867 68.1919 100.541 68.6485 100.064 68.7259L91.0228 70.193C90.5528 70.2693 90.1112 70.474 89.7458 70.785L87.3911 72.7907L85.5556 61.1914C85.4792 60.7085 85.8055 60.2519 86.2824 60.1745L98.3997 58.2082C98.8766 58.1308 99.3275 58.4612 99.4039 58.9442L100.791 67.7089ZM98.1223 56.4552L86.005 58.4215C84.5734 58.6538 83.5951 60.0226 83.8245 61.4723L85.905 74.6195C85.9549 74.935 86.169 75.1996 86.4645 75.3108C86.609 75.3656 86.7621 75.3794 86.9092 75.3555C87.0633 75.3305 87.2108 75.2643 87.3351 75.1578L90.8743 72.1437C90.9963 72.0394 91.1436 71.9714 91.3002 71.946L100.341 70.4788C101.773 70.2465 102.751 68.8777 102.522 67.428L101.135 58.6633C100.906 57.2136 99.5539 56.2229 98.1223 56.4552V56.4552Z" fill="#DEDEDE"/>
<mask id="mask0_41_336" style="mask-type:luminance" maskUnits="userSpaceOnUse" x="83" y="56" width="20" height="20">
<path fill-rule="evenodd" clip-rule="evenodd" d="M88.8456 65.1524C88.7691 64.6686 89.0947 64.213 89.5724 64.1355C90.0502 64.058 90.5001 64.3877 90.5767 64.8715C90.6532 65.3554 90.3276 65.8109 89.8498 65.8885C89.3721 65.966 88.9222 65.6363 88.8456 65.1524ZM93.0345 63.5737C92.5568 63.6512 92.2311 64.1068 92.3077 64.5906C92.3843 65.0745 92.8342 65.4042 93.3119 65.3267C93.7897 65.2491 94.1153 64.7935 94.0387 64.3097C93.9622 63.8259 93.5123 63.4962 93.0345 63.5737ZM96.4966 63.0119C96.0188 63.0894 95.6932 63.545 95.7698 64.0288C95.8463 64.5126 96.2962 64.8424 96.774 64.7649C97.2518 64.6873 97.5774 64.2317 97.5008 63.7479C97.4243 63.2641 96.9744 62.9344 96.4966 63.0119ZM100.791 67.7089C100.867 68.1919 100.541 68.6485 100.064 68.7259L91.0228 70.193C90.5528 70.2693 90.1112 70.474 89.7458 70.785L87.3911 72.7907L85.5556 61.1914C85.4792 60.7085 85.8055 60.2519 86.2824 60.1745L98.3997 58.2082C98.8766 58.1308 99.3275 58.4612 99.4039 58.9442L100.791 67.7089ZM98.1223 56.4552L86.005 58.4215C84.5734 58.6538 83.5951 60.0226 83.8245 61.4723L85.905 74.6195C85.9549 74.935 86.169 75.1996 86.4645 75.3108C86.609 75.3656 86.7621 75.3794 86.9092 75.3555C87.0633 75.3305 87.2108 75.2643 87.3351 75.1578L90.8743 72.1437C90.9963 72.0394 91.1436 71.9714 91.3002 71.946L100.341 70.4788C101.773 70.2465 102.751 68.8777 102.522 67.428L101.135 58.6633C100.906 57.2136 99.5539 56.2229 98.1223 56.4552V56.4552Z" fill="white"/>
</mask>
<g mask="url(#mask0_41_336)">
<rect width="21.0442" height="21.2972" transform="matrix(0.987088 -0.16018 0.156299 0.98771 81.4 57.3708)" fill="#DEDEDE"/>
</g>
</g>
<defs>
<filter id="filter0_d_41_336" x="34.5304" y="40.503" width="93.2179" height="96.6993" filterUnits="userSpaceOnUse" color-interpolation-filters="sRGB">
<feFlood flood-opacity="0" result="BackgroundImageFix"/>
<feColorMatrix in="SourceAlpha" type="matrix" values="0 0 0 0 0 0 0 0 0 0 0 0 0 0 0 0 0 0 127 0" result="hardAlpha"/>
<feOffset dy="4"/>
<feGaussianBlur stdDeviation="2"/>
<feComposite in2="hardAlpha" operator="out"/>
<feColorMatrix type="matrix" values="0 0 0 0 0 0 0 0 0 0 0 0 0 0 0 0 0 0 0.25 0"/>
<feBlend mode="normal" in2="BackgroundImageFix" result="effect1_dropShadow_41_336"/>
<feBlend mode="normal" in="SourceGraphic" in2="effect1_dropShadow_41_336" result="shape"/>
</filter>
<filter id="filter1_d_41_336" x="55" y="54" width="63" height="61" filterUnits="userSpaceOnUse" color-interpolation-filters="sRGB">
<feFlood flood-opacity="0" result="BackgroundImageFix"/>
<feColorMatrix in="SourceAlpha" type="matrix" values="0 0 0 0 0 0 0 0 0 0 0 0 0 0 0 0 0 0 127 0" result="hardAlpha"/>
<feOffset dy="4"/>
<feGaussianBlur stdDeviation="2"/>
<feComposite in2="hardAlpha" operator="out"/>
<feColorMatrix type="matrix" values="0 0 0 0 0 0 0 0 0 0 0 0 0 0 0 0 0 0 0.25 0"/>
<feBlend mode="normal" in2="BackgroundImageFix" result="effect1_dropShadow_41_336"/>
<feBlend mode="normal" in="SourceGraphic" in2="effect1_dropShadow_41_336" result="shape"/>
</filter>
</defs>
</svg>
