<svg width="550" height="377" viewBox="0 0 550 377" fill="none" xmlns="http://www.w3.org/2000/svg">
<ellipse cx="414.467" cy="4.37202" rx="4.37202" ry="4.37202" fill="#FF777E"/>
<ellipse cx="493.164" cy="4.37202" rx="4.37202" ry="4.37202" fill="#FF777E"/>
<ellipse cx="414.467" cy="30.6042" rx="4.37202" ry="4.37202" fill="#FF777E"/>
<ellipse cx="493.164" cy="30.6042" rx="4.37202" ry="4.37202" fill="#FF777E"/>
<circle cx="414.467" cy="56.8361" r="4.37202" fill="#FF777E"/>
<ellipse cx="493.164" cy="56.8361" rx="4.37202" ry="4.37202" fill="#FF777E"/>
<ellipse cx="440.699" cy="4.37202" rx="4.37202" ry="4.37202" fill="#FF777E"/>
<ellipse cx="519.395" cy="4.37202" rx="4.37202" ry="4.37202" fill="#FF777E"/>
<ellipse cx="440.699" cy="30.6042" rx="4.37202" ry="4.37202" fill="#FF777E"/>
<ellipse cx="519.395" cy="30.6042" rx="4.37202" ry="4.37202" fill="#FF777E"/>
<circle cx="440.699" cy="56.8361" r="4.37202" fill="#FF777E"/>
<ellipse cx="519.395" cy="56.8361" rx="4.37202" ry="4.37202" fill="#FF777E"/>
<ellipse cx="466.932" cy="4.37202" rx="4.37202" ry="4.37202" fill="#FF777E"/>
<ellipse cx="545.628" cy="4.37202" rx="4.37202" ry="4.37202" fill="#FF777E"/>
<ellipse cx="466.932" cy="30.6042" rx="4.37202" ry="4.37202" fill="#FF777E"/>
<ellipse cx="545.628" cy="30.6042" rx="4.37202" ry="4.37202" fill="#FF777E"/>
<circle cx="466.932" cy="56.8361" r="4.37202" fill="#FF777E"/>
<ellipse cx="545.628" cy="56.8361" rx="4.37202" ry="4.37202" fill="#FF777E"/>
<ellipse cx="414.467" cy="80.4453" rx="4.37202" ry="4.37202" fill="#FF777E"/>
<ellipse cx="493.164" cy="80.4453" rx="4.37202" ry="4.37202" fill="#FF777E"/>
<ellipse cx="414.467" cy="106.677" rx="4.37202" ry="4.37202" fill="#FF777E"/>
<ellipse cx="493.164" cy="106.677" rx="4.37202" ry="4.37202" fill="#FF777E"/>
<ellipse cx="414.467" cy="132.909" rx="4.37202" ry="4.37202" fill="#FF777E"/>
<ellipse cx="493.164" cy="132.909" rx="4.37202" ry="4.37202" fill="#FF777E"/>
<ellipse cx="440.699" cy="80.4453" rx="4.37202" ry="4.37202" fill="#FF777E"/>
<circle cx="519.395" cy="80.4453" r="4.37202" fill="#FF777E"/>
<ellipse cx="440.699" cy="106.677" rx="4.37202" ry="4.37202" fill="#FF777E"/>
<circle cx="519.395" cy="106.677" r="4.37202" fill="#FF777E"/>
<ellipse cx="440.699" cy="132.909" rx="4.37202" ry="4.37202" fill="#FF777E"/>
<circle cx="519.395" cy="132.909" r="4.37202" fill="#FF777E"/>
<ellipse cx="466.932" cy="80.4453" rx="4.37202" ry="4.37202" fill="#FF777E"/>
<circle cx="545.628" cy="80.4453" r="4.37202" fill="#FF777E"/>
<ellipse cx="466.932" cy="106.677" rx="4.37202" ry="4.37202" fill="#FF777E"/>
<circle cx="545.628" cy="106.677" r="4.37202" fill="#FF777E"/>
<ellipse cx="466.932" cy="132.909" rx="4.37202" ry="4.37202" fill="#FF777E"/>
<circle cx="545.628" cy="132.909" r="4.37202" fill="#FF777E"/>
<circle cx="4.37202" cy="243.959" r="4.37202" fill="#FF777E"/>
<ellipse cx="83.0683" cy="243.959" rx="4.37202" ry="4.37202" fill="#FF777E"/>
<ellipse cx="4.37202" cy="270.191" rx="4.37202" ry="4.37202" fill="#FF777E"/>
<ellipse cx="83.0683" cy="270.191" rx="4.37202" ry="4.37202" fill="#FF777E"/>
<ellipse cx="4.37202" cy="296.423" rx="4.37202" ry="4.37202" fill="#FF777E"/>
<ellipse cx="83.0683" cy="296.423" rx="4.37202" ry="4.37202" fill="#FF777E"/>
<ellipse cx="30.604" cy="243.959" rx="4.37202" ry="4.37202" fill="#FF777E"/>
<ellipse cx="109.301" cy="243.959" rx="4.37202" ry="4.37202" fill="#FF777E"/>
<ellipse cx="30.604" cy="270.191" rx="4.37202" ry="4.37202" fill="#FF777E"/>
<ellipse cx="109.301" cy="270.191" rx="4.37202" ry="4.37202" fill="#FF777E"/>
<circle cx="30.604" cy="296.423" r="4.37202" fill="#FF777E"/>
<ellipse cx="109.301" cy="296.423" rx="4.37202" ry="4.37202" fill="#FF777E"/>
<ellipse cx="56.8364" cy="243.959" rx="4.37202" ry="4.37202" fill="#FF777E"/>
<ellipse cx="135.533" cy="243.959" rx="4.37202" ry="4.37202" fill="#FF777E"/>
<ellipse cx="56.8364" cy="270.191" rx="4.37202" ry="4.37202" fill="#FF777E"/>
<ellipse cx="135.533" cy="270.191" rx="4.37202" ry="4.37202" fill="#FF777E"/>
<circle cx="56.8364" cy="296.423" r="4.37202" fill="#FF777E"/>
<ellipse cx="135.533" cy="296.423" rx="4.37202" ry="4.37202" fill="#FF777E"/>
<ellipse cx="4.37202" cy="320.032" rx="4.37202" ry="4.37202" fill="#FF777E"/>
<circle cx="83.0683" cy="320.032" r="4.37202" fill="#FF777E"/>
<ellipse cx="4.37202" cy="346.264" rx="4.37202" ry="4.37202" fill="#FF777E"/>
<circle cx="83.0683" cy="346.264" r="4.37202" fill="#FF777E"/>
<ellipse cx="4.37202" cy="372.496" rx="4.37202" ry="4.37202" fill="#FF777E"/>
<circle cx="83.0683" cy="372.496" r="4.37202" fill="#FF777E"/>
<ellipse cx="30.604" cy="320.032" rx="4.37202" ry="4.37202" fill="#FF777E"/>
<circle cx="109.301" cy="320.032" r="4.37202" fill="#FF777E"/>
<ellipse cx="30.604" cy="346.264" rx="4.37202" ry="4.37202" fill="#FF777E"/>
<circle cx="109.301" cy="346.264" r="4.37202" fill="#FF777E"/>
<ellipse cx="30.604" cy="372.496" rx="4.37202" ry="4.37202" fill="#FF777E"/>
<circle cx="109.301" cy="372.496" r="4.37202" fill="#FF777E"/>
<ellipse cx="56.8364" cy="320.032" rx="4.37202" ry="4.37202" fill="#FF777E"/>
<circle cx="135.533" cy="320.032" r="4.37202" fill="#FF777E"/>
<ellipse cx="56.8364" cy="346.264" rx="4.37202" ry="4.37202" fill="#FF777E"/>
<circle cx="135.533" cy="346.264" r="4.37202" fill="#FF777E"/>
<ellipse cx="56.8364" cy="372.496" rx="4.37202" ry="4.37202" fill="#FF777E"/>
<circle cx="135.533" cy="372.496" r="4.37202" fill="#FF777E"/>
<path d="M533.474 100.743L423.049 15.5332C419.548 12.8322 415.252 11.3672 410.83 11.3672H34.8647C23.8191 11.3672 14.8647 20.3215 14.8647 31.3672V277.259C14.8647 284.198 18.4618 290.642 24.3687 294.284L129.382 359.028C132.538 360.973 136.171 362.003 139.878 362.003H521.256C532.302 362.003 541.256 353.049 541.256 342.003V116.577C541.256 110.378 538.382 104.53 533.474 100.743Z" fill="#484848" stroke="url(#paint0_linear_72_1783)" stroke-width="2"/>
<defs>
<linearGradient id="paint0_linear_72_1783" x1="278.06" y1="11.3672" x2="278.06" y2="362.003" gradientUnits="userSpaceOnUse">
<stop stop-color="#FF5582"/>
<stop offset="0.364583" stop-color="#FF777F"/>
<stop offset="0.697917" stop-color="#FFA37A"/>
<stop offset="1" stop-color="#FFC776"/>
</linearGradient>
</defs>
</svg>
