<svg width="24" height="24" viewBox="0 0 24 24" fill="none" xmlns="http://www.w3.org/2000/svg">
<path fill-rule="evenodd" clip-rule="evenodd" d="M12.0998 20.4003C10.2481 20.3837 8.51461 19.636 7.21676 18.292C4.55 15.5302 4.586 11.0708 7.29707 8.34955L11.5746 4.05725C11.7491 3.88094 11.9872 3.78309 12.2355 3.78494V3.78494C12.4838 3.78771 12.7201 3.88925 12.8928 4.0674L17.1011 8.42986C19.7678 11.1926 19.7318 15.6529 17.0198 18.3714C15.7008 19.6942 13.9552 20.4151 12.1017 20.4003H12.0998Z" fill="url(#paint0_linear_21_1467)"/>
<mask id="mask0_21_1467" style="mask-type:luminance" maskUnits="userSpaceOnUse" x="5" y="3" width="15" height="18">
<path fill-rule="evenodd" clip-rule="evenodd" d="M12.0998 20.4003C10.2481 20.3837 8.51461 19.636 7.21676 18.292C4.55 15.5302 4.586 11.0708 7.29707 8.34955L11.5746 4.05725C11.7491 3.88094 11.9872 3.78309 12.2355 3.78494V3.78494C12.4838 3.78771 12.7201 3.88925 12.8928 4.0674L17.1011 8.42986C19.7678 11.1926 19.7318 15.6529 17.0198 18.3714C15.7008 19.6942 13.9552 20.4151 12.1017 20.4003H12.0998Z" fill="white"/>
</mask>
<g mask="url(#mask0_21_1467)">
<rect width="24" height="24" fill="url(#paint1_linear_21_1467)"/>
</g>
<defs>
<linearGradient id="paint0_linear_21_1467" x1="12.1589" y1="3.78491" x2="12.1589" y2="20.4005" gradientUnits="userSpaceOnUse">
<stop stop-color="#FF5582"/>
<stop offset="0.364583" stop-color="#FF777F"/>
<stop offset="0.697917" stop-color="#FFA37A"/>
<stop offset="1" stop-color="#FFC776"/>
</linearGradient>
<linearGradient id="paint1_linear_21_1467" x1="12" y1="0" x2="12" y2="24" gradientUnits="userSpaceOnUse">
<stop stop-color="#FF5582"/>
<stop offset="0.364583" stop-color="#FF777F"/>
<stop offset="0.697917" stop-color="#FFA37A"/>
<stop offset="1" stop-color="#FFC776"/>
</linearGradient>
</defs>
</svg>
