<svg width="30" height="30" viewBox="0 0 30 30" fill="none" xmlns="http://www.w3.org/2000/svg">
<path fill-rule="evenodd" clip-rule="evenodd" d="M16.7029 21.25C16.3754 21.25 16.0492 21.1225 15.8042 20.8688L10.9754 15.8688C10.5029 15.3775 10.5092 14.5988 10.9917 14.1163L15.9917 9.11626C16.4792 8.62751 17.2704 8.62751 17.7592 9.11626C18.2467 9.60501 18.2467 10.395 17.7592 10.8838L13.6279 15.015L17.6017 19.1313C18.0817 19.6288 18.0679 20.42 17.5717 20.8988C17.3279 21.1338 17.0154 21.25 16.7029 21.25" fill="url(#paint0_linear_32_1803)"/>
<mask id="mask0_32_1803" style="mask-type:luminance" maskUnits="userSpaceOnUse" x="10" y="8" width="9" height="14">
<path fill-rule="evenodd" clip-rule="evenodd" d="M16.7029 21.25C16.3754 21.25 16.0492 21.1225 15.8042 20.8688L10.9754 15.8688C10.5029 15.3775 10.5092 14.5988 10.9917 14.1163L15.9917 9.11626C16.4792 8.62751 17.2704 8.62751 17.7592 9.11626C18.2467 9.60501 18.2467 10.395 17.7592 10.8838L13.6279 15.015L17.6017 19.1313C18.0817 19.6288 18.0679 20.42 17.5717 20.8988C17.3279 21.1338 17.0154 21.25 16.7029 21.25" fill="white"/>
</mask>
<g mask="url(#mask0_32_1803)">
<rect width="30" height="30" fill="url(#paint1_linear_32_1803)"/>
</g>
<defs>
<linearGradient id="paint0_linear_32_1803" x1="14.3751" y1="8.74969" x2="14.3751" y2="21.25" gradientUnits="userSpaceOnUse">
<stop stop-color="#FF5582"/>
<stop offset="0.364583" stop-color="#FF777F"/>
<stop offset="0.697917" stop-color="#FFA37A"/>
<stop offset="1" stop-color="#FFC776"/>
</linearGradient>
<linearGradient id="paint1_linear_32_1803" x1="15" y1="0" x2="15" y2="30" gradientUnits="userSpaceOnUse">
<stop stop-color="#FF5582"/>
<stop offset="0.364583" stop-color="#FF777F"/>
<stop offset="0.697917" stop-color="#FFA37A"/>
<stop offset="1" stop-color="#FFC776"/>
</linearGradient>
</defs>
</svg>
