<svg width="50" height="50" viewBox="0 0 50 50" fill="none" xmlns="http://www.w3.org/2000/svg">
<circle cx="25" cy="25" r="25" fill="#C4294F"/>
<g filter="url(#filter0_d_168_767)">
<path fill-rule="evenodd" clip-rule="evenodd" d="M29.6666 25.5C29.0916 25.5 28.6249 25.0333 28.6249 24.4583C28.6249 23.8833 29.0916 23.4167 29.6666 23.4167C30.2416 23.4167 30.7083 23.8833 30.7083 24.4583C30.7083 25.0333 30.2416 25.5 29.6666 25.5M25.4999 25.5C24.9249 25.5 24.4583 25.0333 24.4583 24.4583C24.4583 23.8833 24.9249 23.4167 25.4999 23.4167C26.0749 23.4167 26.5416 23.8833 26.5416 24.4583C26.5416 25.0333 26.0749 25.5 25.4999 25.5M21.3333 25.5C20.7583 25.5 20.2916 25.0333 20.2916 24.4583C20.2916 23.8833 20.7583 23.4167 21.3333 23.4167C21.9083 23.4167 22.3749 23.8833 22.3749 24.4583C22.3749 25.0333 21.9083 25.5 21.3333 25.5M32.7916 16.125H18.2083C16.4853 16.125 15.0833 17.5271 15.0833 19.25V34.875C15.0833 35.25 15.2853 35.5969 15.6114 35.7813C15.7708 35.8719 15.9478 35.9167 16.1249 35.9167C16.3103 35.9167 16.4958 35.8677 16.6614 35.7677L21.3739 32.9406C21.5364 32.8427 21.7218 32.7917 21.9103 32.7917H32.7916C34.5145 32.7917 35.9166 31.3896 35.9166 29.6667V19.25C35.9166 17.5271 34.5145 16.125 32.7916 16.125" fill="#231F20"/>
<mask id="mask0_168_767" style="mask-type:luminance" maskUnits="userSpaceOnUse" x="15" y="16" width="21" height="20">
<path fill-rule="evenodd" clip-rule="evenodd" d="M29.6666 25.5C29.0916 25.5 28.6249 25.0333 28.6249 24.4583C28.6249 23.8833 29.0916 23.4167 29.6666 23.4167C30.2416 23.4167 30.7083 23.8833 30.7083 24.4583C30.7083 25.0333 30.2416 25.5 29.6666 25.5M25.4999 25.5C24.9249 25.5 24.4583 25.0333 24.4583 24.4583C24.4583 23.8833 24.9249 23.4167 25.4999 23.4167C26.0749 23.4167 26.5416 23.8833 26.5416 24.4583C26.5416 25.0333 26.0749 25.5 25.4999 25.5M21.3333 25.5C20.7583 25.5 20.2916 25.0333 20.2916 24.4583C20.2916 23.8833 20.7583 23.4167 21.3333 23.4167C21.9083 23.4167 22.3749 23.8833 22.3749 24.4583C22.3749 25.0333 21.9083 25.5 21.3333 25.5M32.7916 16.125H18.2083C16.4853 16.125 15.0833 17.5271 15.0833 19.25V34.875C15.0833 35.25 15.2853 35.5969 15.6114 35.7813C15.7708 35.8719 15.9478 35.9167 16.1249 35.9167C16.3103 35.9167 16.4958 35.8677 16.6614 35.7677L21.3739 32.9406C21.5364 32.8427 21.7218 32.7917 21.9103 32.7917H32.7916C34.5145 32.7917 35.9166 31.3896 35.9166 29.6667V19.25C35.9166 17.5271 34.5145 16.125 32.7916 16.125" fill="white"/>
</mask>
<g mask="url(#mask0_168_767)">
<rect x="13" y="13" width="25" height="25" fill="#E4E6E9"/>
</g>
</g>
<defs>
<filter id="filter0_d_168_767" x="9" y="13" width="33" height="33" filterUnits="userSpaceOnUse" color-interpolation-filters="sRGB">
<feFlood flood-opacity="0" result="BackgroundImageFix"/>
<feColorMatrix in="SourceAlpha" type="matrix" values="0 0 0 0 0 0 0 0 0 0 0 0 0 0 0 0 0 0 127 0" result="hardAlpha"/>
<feOffset dy="4"/>
<feGaussianBlur stdDeviation="2"/>
<feComposite in2="hardAlpha" operator="out"/>
<feColorMatrix type="matrix" values="0 0 0 0 0 0 0 0 0 0 0 0 0 0 0 0 0 0 0.25 0"/>
<feBlend mode="normal" in2="BackgroundImageFix" result="effect1_dropShadow_168_767"/>
<feBlend mode="normal" in="SourceGraphic" in2="effect1_dropShadow_168_767" result="shape"/>
</filter>
</defs>
</svg>
