<svg width="1158" height="596" viewBox="0 0 1158 596" fill="none" xmlns="http://www.w3.org/2000/svg">
<ellipse cx="4.80897" cy="5" rx="4.80897" ry="5" fill="#FF777E"/>
<ellipse cx="91.3705" cy="5" rx="4.80897" ry="5" fill="#FF777E"/>
<ellipse cx="4.80897" cy="35" rx="4.80897" ry="5" fill="#FF777E"/>
<ellipse cx="91.3705" cy="35" rx="4.80897" ry="5" fill="#FF777E"/>
<ellipse cx="4.80897" cy="65" rx="4.80897" ry="5" fill="#FF777E"/>
<ellipse cx="91.3705" cy="65" rx="4.80897" ry="5" fill="#FF777E"/>
<ellipse cx="33.663" cy="5" rx="4.80897" ry="5" fill="#FF777E"/>
<ellipse cx="120.224" cy="5" rx="4.80897" ry="5" fill="#FF777E"/>
<ellipse cx="33.663" cy="35" rx="4.80897" ry="5" fill="#FF777E"/>
<ellipse cx="120.224" cy="35" rx="4.80897" ry="5" fill="#FF777E"/>
<ellipse cx="33.663" cy="65" rx="4.80897" ry="5" fill="#FF777E"/>
<ellipse cx="120.224" cy="65" rx="4.80897" ry="5" fill="#FF777E"/>
<ellipse cx="62.5165" cy="5" rx="4.80897" ry="5" fill="#FF777E"/>
<ellipse cx="149.078" cy="5" rx="4.80897" ry="5" fill="#FF777E"/>
<ellipse cx="62.5165" cy="35" rx="4.80897" ry="5" fill="#FF777E"/>
<ellipse cx="149.078" cy="35" rx="4.80897" ry="5" fill="#FF777E"/>
<ellipse cx="62.5165" cy="65" rx="4.80897" ry="5" fill="#FF777E"/>
<ellipse cx="149.078" cy="65" rx="4.80897" ry="5" fill="#FF777E"/>
<ellipse cx="4.80897" cy="92" rx="4.80897" ry="5" fill="#FF777E"/>
<ellipse cx="91.3705" cy="92" rx="4.80897" ry="5" fill="#FF777E"/>
<ellipse cx="4.80897" cy="122" rx="4.80897" ry="5" fill="#FF777E"/>
<ellipse cx="91.3705" cy="122" rx="4.80897" ry="5" fill="#FF777E"/>
<ellipse cx="4.80897" cy="152" rx="4.80897" ry="5" fill="#FF777E"/>
<ellipse cx="91.3705" cy="152" rx="4.80897" ry="5" fill="#FF777E"/>
<ellipse cx="33.663" cy="92" rx="4.80897" ry="5" fill="#FF777E"/>
<ellipse cx="120.224" cy="92" rx="4.80897" ry="5" fill="#FF777E"/>
<ellipse cx="33.663" cy="122" rx="4.80897" ry="5" fill="#FF777E"/>
<ellipse cx="120.224" cy="122" rx="4.80897" ry="5" fill="#FF777E"/>
<ellipse cx="33.663" cy="152" rx="4.80897" ry="5" fill="#FF777E"/>
<ellipse cx="120.224" cy="152" rx="4.80897" ry="5" fill="#FF777E"/>
<ellipse cx="62.5165" cy="92" rx="4.80897" ry="5" fill="#FF777E"/>
<ellipse cx="149.078" cy="92" rx="4.80897" ry="5" fill="#FF777E"/>
<ellipse cx="62.5165" cy="122" rx="4.80897" ry="5" fill="#FF777E"/>
<ellipse cx="149.078" cy="122" rx="4.80897" ry="5" fill="#FF777E"/>
<ellipse cx="62.5165" cy="152" rx="4.80897" ry="5" fill="#FF777E"/>
<ellipse cx="149.078" cy="152" rx="4.80897" ry="5" fill="#FF777E"/>
<ellipse cx="1008.92" cy="444" rx="4.80897" ry="5" fill="#FF777E"/>
<ellipse cx="1095.48" cy="444" rx="4.80897" ry="5" fill="#FF777E"/>
<ellipse cx="1008.92" cy="474" rx="4.80897" ry="5" fill="#FF777E"/>
<ellipse cx="1095.48" cy="474" rx="4.80897" ry="5" fill="#FF777E"/>
<ellipse cx="1008.92" cy="504" rx="4.80897" ry="5" fill="#FF777E"/>
<ellipse cx="1095.48" cy="504" rx="4.80897" ry="5" fill="#FF777E"/>
<ellipse cx="1037.78" cy="444" rx="4.80897" ry="5" fill="#FF777E"/>
<ellipse cx="1124.34" cy="444" rx="4.80897" ry="5" fill="#FF777E"/>
<ellipse cx="1037.78" cy="474" rx="4.80897" ry="5" fill="#FF777E"/>
<ellipse cx="1124.34" cy="474" rx="4.80897" ry="5" fill="#FF777E"/>
<ellipse cx="1037.78" cy="504" rx="4.80897" ry="5" fill="#FF777E"/>
<ellipse cx="1124.34" cy="504" rx="4.80897" ry="5" fill="#FF777E"/>
<ellipse cx="1066.63" cy="444" rx="4.80897" ry="5" fill="#FF777E"/>
<ellipse cx="1153.19" cy="444" rx="4.80897" ry="5" fill="#FF777E"/>
<ellipse cx="1066.63" cy="474" rx="4.80897" ry="5" fill="#FF777E"/>
<ellipse cx="1153.19" cy="474" rx="4.80897" ry="5" fill="#FF777E"/>
<ellipse cx="1066.63" cy="504" rx="4.80897" ry="5" fill="#FF777E"/>
<ellipse cx="1153.19" cy="504" rx="4.80897" ry="5" fill="#FF777E"/>
<ellipse cx="1008.92" cy="531" rx="4.80897" ry="5" fill="#FF777E"/>
<ellipse cx="1095.48" cy="531" rx="4.80897" ry="5" fill="#FF777E"/>
<ellipse cx="1008.92" cy="561" rx="4.80897" ry="5" fill="#FF777E"/>
<ellipse cx="1095.48" cy="561" rx="4.80897" ry="5" fill="#FF777E"/>
<ellipse cx="1008.92" cy="591" rx="4.80897" ry="5" fill="#FF777E"/>
<ellipse cx="1095.48" cy="591" rx="4.80897" ry="5" fill="#FF777E"/>
<ellipse cx="1037.78" cy="531" rx="4.80897" ry="5" fill="#FF777E"/>
<ellipse cx="1124.34" cy="531" rx="4.80897" ry="5" fill="#FF777E"/>
<ellipse cx="1037.78" cy="561" rx="4.80897" ry="5" fill="#FF777E"/>
<ellipse cx="1124.34" cy="561" rx="4.80897" ry="5" fill="#FF777E"/>
<ellipse cx="1037.78" cy="591" rx="4.80897" ry="5" fill="#FF777E"/>
<ellipse cx="1124.34" cy="591" rx="4.80897" ry="5" fill="#FF777E"/>
<ellipse cx="1066.63" cy="531" rx="4.80897" ry="5" fill="#FF777E"/>
<ellipse cx="1153.19" cy="531" rx="4.80897" ry="5" fill="#FF777E"/>
<ellipse cx="1066.63" cy="561" rx="4.80897" ry="5" fill="#FF777E"/>
<ellipse cx="1153.19" cy="561" rx="4.80897" ry="5" fill="#FF777E"/>
<ellipse cx="1066.63" cy="591" rx="4.80897" ry="5" fill="#FF777E"/>
<ellipse cx="1153.19" cy="591" rx="4.80897" ry="5" fill="#FF777E"/>
<path d="M57.2041 47.5H1101.76C1108.11 47.5 1113.26 52.6487 1113.26 59V537C1113.26 543.351 1108.11 548.5 1101.76 548.5H57.2041C50.8528 548.5 45.7041 543.351 45.7041 537V59C45.7041 52.6487 50.8528 47.5 57.2041 47.5Z" fill="#494949" stroke="url(#paint0_linear_59_1781)"/>
<defs>
<linearGradient id="paint0_linear_59_1781" x1="579.481" y1="47" x2="579.481" y2="549" gradientUnits="userSpaceOnUse">
<stop stop-color="#FF5582"/>
<stop offset="0.364583" stop-color="#FF777F"/>
<stop offset="0.697917" stop-color="#FFA37A"/>
<stop offset="1" stop-color="#FFC776"/>
</linearGradient>
</defs>
</svg>
