<svg width="73" height="76" viewBox="0 0 73 76" fill="none" xmlns="http://www.w3.org/2000/svg">
<g filter="url(#filter0_d_44_397)">
<rect x="1" y="35.4263" width="50" height="50" rx="8" transform="rotate(-45 1 35.4263)" fill="#8D59C2"/>
</g>
<path d="M28.5914 43.36C27.5114 43.36 26.5247 43.0333 25.6314 42.38C24.7381 41.7267 24.0247 40.7867 23.4914 39.56C22.9714 38.3333 22.7114 36.8733 22.7114 35.18C22.7114 34.02 22.8647 32.9467 23.1714 31.96C23.4781 30.9733 23.8981 30.1133 24.4314 29.38C24.9647 28.6333 25.5847 28.0533 26.2914 27.64C27.0114 27.2267 27.7781 27.02 28.5914 27.02C29.4047 27.02 30.1647 27.2267 30.8714 27.64C31.5914 28.04 32.2181 28.6067 32.7514 29.34C33.2981 30.0733 33.7247 30.94 34.0314 31.94C34.3381 32.9267 34.4914 34.0067 34.4914 35.18C34.4914 36.4067 34.3381 37.52 34.0314 38.52C33.7247 39.52 33.2981 40.3867 32.7514 41.12C32.2181 41.84 31.5914 42.3933 30.8714 42.78C30.1647 43.1667 29.4047 43.36 28.5914 43.36ZM28.5914 41.26C29.2447 41.26 29.8047 41 30.2714 40.48C30.7381 39.9467 31.0981 39.2267 31.3514 38.32C31.6047 37.4 31.7314 36.3533 31.7314 35.18C31.7314 34.0733 31.6047 33.0667 31.3514 32.16C31.0981 31.24 30.7381 30.5067 30.2714 29.96C29.8047 29.4133 29.2447 29.14 28.5914 29.14C27.9381 29.14 27.3781 29.4133 26.9114 29.96C26.4447 30.4933 26.0847 31.22 25.8314 32.14C25.5914 33.0467 25.4714 34.06 25.4714 35.18C25.4714 36.3533 25.5914 37.4 25.8314 38.32C26.0847 39.2267 26.4447 39.9467 26.9114 40.48C27.3781 41 27.9381 41.26 28.5914 41.26ZM46.8 30.36C46.4267 29.9333 45.9333 29.6067 45.32 29.38C44.7067 29.14 44.0467 29.02 43.34 29.02C42.58 29.02 41.8867 29.2333 41.26 29.66C40.6333 30.0867 40.1333 30.7267 39.76 31.58C39.4 32.4333 39.22 33.5067 39.22 34.8C39.4867 34.1867 39.96 33.6867 40.64 33.3C41.3333 32.9133 42.0933 32.72 42.92 32.72C44.04 32.72 45.02 32.9067 45.86 33.28C46.7133 33.6533 47.3733 34.22 47.84 34.98C48.3067 35.7267 48.54 36.68 48.54 37.84C48.54 39.0133 48.2867 40.0133 47.78 40.84C47.2867 41.6533 46.6 42.28 45.72 42.72C44.84 43.1467 43.82 43.36 42.66 43.36C41.46 43.36 40.3933 43.0867 39.46 42.54C38.54 41.9933 37.8133 41.14 37.28 39.98C36.76 38.8067 36.5 37.3 36.5 35.46C36.5 33.5933 36.7933 32.0333 37.38 30.78C37.9667 29.5267 38.76 28.5867 39.76 27.96C40.76 27.3333 41.88 27.02 43.12 27.02C44.2133 27.02 45.1733 27.2067 46 27.58C46.84 27.94 47.48 28.4867 47.92 29.22L46.8 30.36ZM39.44 37.48C39.44 38.24 39.58 38.92 39.86 39.52C40.1533 40.1067 40.54 40.5733 41.02 40.92C41.5 41.2667 42.0267 41.44 42.6 41.44C43.5733 41.44 44.3533 41.14 44.94 40.54C45.5267 39.94 45.82 39.1 45.82 38.02C45.82 36.98 45.5333 36.1733 44.96 35.6C44.3867 35.0133 43.6067 34.72 42.62 34.72C41.8333 34.72 41.14 34.98 40.54 35.5C39.94 36.0067 39.5733 36.6667 39.44 37.48Z" fill="#E4E6E9"/>
<defs>
<filter id="filter0_d_44_397" x="0.313721" y="3.38452" width="72.0833" height="72.0835" filterUnits="userSpaceOnUse" color-interpolation-filters="sRGB">
<feFlood flood-opacity="0" result="BackgroundImageFix"/>
<feColorMatrix in="SourceAlpha" type="matrix" values="0 0 0 0 0 0 0 0 0 0 0 0 0 0 0 0 0 0 127 0" result="hardAlpha"/>
<feOffset dy="4"/>
<feGaussianBlur stdDeviation="2"/>
<feComposite in2="hardAlpha" operator="out"/>
<feColorMatrix type="matrix" values="0 0 0 0 0 0 0 0 0 0 0 0 0 0 0 0 0 0 0.25 0"/>
<feBlend mode="normal" in2="BackgroundImageFix" result="effect1_dropShadow_44_397"/>
<feBlend mode="normal" in="SourceGraphic" in2="effect1_dropShadow_44_397" result="shape"/>
</filter>
</defs>
</svg>
