<svg width="73" height="76" viewBox="0 0 73 76" fill="none" xmlns="http://www.w3.org/2000/svg">
<g filter="url(#filter0_d_44_400)">
<rect x="1" y="35.4263" width="50" height="50" rx="8" transform="rotate(-45 1 35.4263)" fill="#8D59C2"/>
</g>
<path d="M28.5914 43.36C27.5114 43.36 26.5247 43.0333 25.6314 42.38C24.7381 41.7267 24.0247 40.7867 23.4914 39.56C22.9714 38.3333 22.7114 36.8733 22.7114 35.18C22.7114 34.02 22.8647 32.9467 23.1714 31.96C23.4781 30.9733 23.8981 30.1133 24.4314 29.38C24.9647 28.6333 25.5847 28.0533 26.2914 27.64C27.0114 27.2267 27.7781 27.02 28.5914 27.02C29.4047 27.02 30.1647 27.2267 30.8714 27.64C31.5914 28.04 32.2181 28.6067 32.7514 29.34C33.2981 30.0733 33.7247 30.94 34.0314 31.94C34.3381 32.9267 34.4914 34.0067 34.4914 35.18C34.4914 36.4067 34.3381 37.52 34.0314 38.52C33.7247 39.52 33.2981 40.3867 32.7514 41.12C32.2181 41.84 31.5914 42.3933 30.8714 42.78C30.1647 43.1667 29.4047 43.36 28.5914 43.36ZM28.5914 41.26C29.2447 41.26 29.8047 41 30.2714 40.48C30.7381 39.9467 31.0981 39.2267 31.3514 38.32C31.6047 37.4 31.7314 36.3533 31.7314 35.18C31.7314 34.0733 31.6047 33.0667 31.3514 32.16C31.0981 31.24 30.7381 30.5067 30.2714 29.96C29.8047 29.4133 29.2447 29.14 28.5914 29.14C27.9381 29.14 27.3781 29.4133 26.9114 29.96C26.4447 30.4933 26.0847 31.22 25.8314 32.14C25.5914 33.0467 25.4714 34.06 25.4714 35.18C25.4714 36.3533 25.5914 37.4 25.8314 38.32C26.0847 39.2267 26.4447 39.9467 26.9114 40.48C27.3781 41 27.9381 41.26 28.5914 41.26ZM38.14 40.04C38.5133 40.4667 39.0067 40.8 39.62 41.04C40.2333 41.2667 40.8933 41.38 41.6 41.38C42.3733 41.38 43.0733 41.1667 43.7 40.74C44.34 40.3133 44.8467 39.6733 45.22 38.82C45.6067 37.9533 45.8 36.88 45.8 35.6C45.6267 36 45.3467 36.36 44.96 36.68C44.5733 36.9867 44.1267 37.2333 43.62 37.42C43.1133 37.5933 42.58 37.68 42.02 37.68C40.9 37.68 39.92 37.4933 39.08 37.12C38.24 36.7467 37.58 36.18 37.1 35.42C36.6333 34.66 36.4 33.7067 36.4 32.56C36.4 31.3867 36.6467 30.3867 37.14 29.56C37.6467 28.7333 38.34 28.1067 39.22 27.68C40.1 27.24 41.12 27.02 42.28 27.02C43.48 27.02 44.54 27.3 45.46 27.86C46.3933 28.4067 47.12 29.26 47.64 30.42C48.1733 31.58 48.44 33.0867 48.44 34.94C48.44 36.8067 48.1467 38.3667 47.56 39.62C46.9733 40.86 46.18 41.7933 45.18 42.42C44.1933 43.0467 43.0733 43.36 41.82 43.36C40.7267 43.36 39.76 43.18 38.92 42.82C38.0933 42.46 37.46 41.9133 37.02 41.18L38.14 40.04ZM45.58 32.92C45.58 32.16 45.4267 31.48 45.12 30.88C44.8267 30.28 44.4333 29.8133 43.94 29.48C43.4467 29.1333 42.9133 28.96 42.34 28.96C41.3667 28.96 40.5867 29.26 40 29.86C39.4133 30.46 39.12 31.3 39.12 32.38C39.12 33.42 39.4067 34.2333 39.98 34.82C40.5667 35.3933 41.3467 35.68 42.32 35.68C42.8533 35.68 43.3467 35.5667 43.8 35.34C44.2667 35.1 44.66 34.7733 44.98 34.36C45.3 33.9333 45.5 33.4533 45.58 32.92Z" fill="#E4E6E9"/>
<defs>
<filter id="filter0_d_44_400" x="0.313721" y="3.38452" width="72.0833" height="72.0835" filterUnits="userSpaceOnUse" color-interpolation-filters="sRGB">
<feFlood flood-opacity="0" result="BackgroundImageFix"/>
<feColorMatrix in="SourceAlpha" type="matrix" values="0 0 0 0 0 0 0 0 0 0 0 0 0 0 0 0 0 0 127 0" result="hardAlpha"/>
<feOffset dy="4"/>
<feGaussianBlur stdDeviation="2"/>
<feComposite in2="hardAlpha" operator="out"/>
<feColorMatrix type="matrix" values="0 0 0 0 0 0 0 0 0 0 0 0 0 0 0 0 0 0 0.25 0"/>
<feBlend mode="normal" in2="BackgroundImageFix" result="effect1_dropShadow_44_400"/>
<feBlend mode="normal" in="SourceGraphic" in2="effect1_dropShadow_44_400" result="shape"/>
</filter>
</defs>
</svg>
