<svg width="73" height="76" viewBox="0 0 73 76" fill="none" xmlns="http://www.w3.org/2000/svg">
<g filter="url(#filter0_d_44_396)">
<rect x="1" y="35.4263" width="50" height="50" rx="8" transform="rotate(-45 1 35.4263)" fill="#8D59C2"/>
</g>
<path d="M28.5914 43.36C27.5114 43.36 26.5247 43.0333 25.6314 42.38C24.7381 41.7267 24.0247 40.7867 23.4914 39.56C22.9714 38.3333 22.7114 36.8733 22.7114 35.18C22.7114 34.02 22.8647 32.9467 23.1714 31.96C23.4781 30.9733 23.8981 30.1133 24.4314 29.38C24.9647 28.6333 25.5847 28.0533 26.2914 27.64C27.0114 27.2267 27.7781 27.02 28.5914 27.02C29.4047 27.02 30.1647 27.2267 30.8714 27.64C31.5914 28.04 32.2181 28.6067 32.7514 29.34C33.2981 30.0733 33.7247 30.94 34.0314 31.94C34.3381 32.9267 34.4914 34.0067 34.4914 35.18C34.4914 36.4067 34.3381 37.52 34.0314 38.52C33.7247 39.52 33.2981 40.3867 32.7514 41.12C32.2181 41.84 31.5914 42.3933 30.8714 42.78C30.1647 43.1667 29.4047 43.36 28.5914 43.36ZM28.5914 41.26C29.2447 41.26 29.8047 41 30.2714 40.48C30.7381 39.9467 31.0981 39.2267 31.3514 38.32C31.6047 37.4 31.7314 36.3533 31.7314 35.18C31.7314 34.0733 31.6047 33.0667 31.3514 32.16C31.0981 31.24 30.7381 30.5067 30.2714 29.96C29.8047 29.4133 29.2447 29.14 28.5914 29.14C27.9381 29.14 27.3781 29.4133 26.9114 29.96C26.4447 30.4933 26.0847 31.22 25.8314 32.14C25.5914 33.0467 25.4714 34.06 25.4714 35.18C25.4714 36.3533 25.5914 37.4 25.8314 38.32C26.0847 39.2267 26.4447 39.9467 26.9114 40.48C27.3781 41 27.9381 41.26 28.5914 41.26ZM40 29.9L39.36 33.84L39.42 33.86C39.7 33.5933 40.14 33.3467 40.74 33.12C41.3533 32.8933 42.0467 32.78 42.82 32.78C43.82 32.78 44.7467 32.96 45.6 33.32C46.4667 33.6667 47.16 34.2133 47.68 34.96C48.2 35.6933 48.46 36.6467 48.46 37.82C48.46 39.02 48.1733 40.0333 47.6 40.86C47.0267 41.6867 46.2667 42.3133 45.32 42.74C44.3733 43.1533 43.34 43.36 42.22 43.36C40.7933 43.36 39.5933 43.0267 38.62 42.36C37.6467 41.6933 36.9533 40.8333 36.54 39.78L37.94 38.86C38.3533 39.62 38.94 40.2133 39.7 40.64C40.46 41.0533 41.3067 41.26 42.24 41.26C42.88 41.26 43.46 41.1333 43.98 40.88C44.5 40.6267 44.9133 40.2467 45.22 39.74C45.5267 39.22 45.68 38.58 45.68 37.82C45.68 36.7267 45.3667 35.92 44.74 35.4C44.1133 34.88 43.3467 34.62 42.44 34.62C41.7867 34.62 41.1533 34.7933 40.54 35.14C39.94 35.4733 39.5133 35.9133 39.26 36.46L36.92 35.9L37.62 27.4H40.42L40.3 28.04L47.2 27.4V29.9H40Z" fill="#E4E6E9"/>
<defs>
<filter id="filter0_d_44_396" x="0.313721" y="3.38452" width="72.0833" height="72.0835" filterUnits="userSpaceOnUse" color-interpolation-filters="sRGB">
<feFlood flood-opacity="0" result="BackgroundImageFix"/>
<feColorMatrix in="SourceAlpha" type="matrix" values="0 0 0 0 0 0 0 0 0 0 0 0 0 0 0 0 0 0 127 0" result="hardAlpha"/>
<feOffset dy="4"/>
<feGaussianBlur stdDeviation="2"/>
<feComposite in2="hardAlpha" operator="out"/>
<feColorMatrix type="matrix" values="0 0 0 0 0 0 0 0 0 0 0 0 0 0 0 0 0 0 0.25 0"/>
<feBlend mode="normal" in2="BackgroundImageFix" result="effect1_dropShadow_44_396"/>
<feBlend mode="normal" in="SourceGraphic" in2="effect1_dropShadow_44_396" result="shape"/>
</filter>
</defs>
</svg>
