<svg width="73" height="76" viewBox="0 0 73 76" fill="none" xmlns="http://www.w3.org/2000/svg">
<g filter="url(#filter0_d_44_394)">
<rect x="1" y="35.4263" width="50" height="50" rx="8" transform="rotate(-45 1 35.4263)" fill="#8D59C2"/>
</g>
<path d="M28.5914 43.36C27.5114 43.36 26.5247 43.0333 25.6314 42.38C24.7381 41.7267 24.0247 40.7867 23.4914 39.56C22.9714 38.3333 22.7114 36.8733 22.7114 35.18C22.7114 34.02 22.8647 32.9467 23.1714 31.96C23.4781 30.9733 23.8981 30.1133 24.4314 29.38C24.9647 28.6333 25.5847 28.0533 26.2914 27.64C27.0114 27.2267 27.7781 27.02 28.5914 27.02C29.4047 27.02 30.1647 27.2267 30.8714 27.64C31.5914 28.04 32.2181 28.6067 32.7514 29.34C33.2981 30.0733 33.7247 30.94 34.0314 31.94C34.3381 32.9267 34.4914 34.0067 34.4914 35.18C34.4914 36.4067 34.3381 37.52 34.0314 38.52C33.7247 39.52 33.2981 40.3867 32.7514 41.12C32.2181 41.84 31.5914 42.3933 30.8714 42.78C30.1647 43.1667 29.4047 43.36 28.5914 43.36ZM28.5914 41.26C29.2447 41.26 29.8047 41 30.2714 40.48C30.7381 39.9467 31.0981 39.2267 31.3514 38.32C31.6047 37.4 31.7314 36.3533 31.7314 35.18C31.7314 34.0733 31.6047 33.0667 31.3514 32.16C31.0981 31.24 30.7381 30.5067 30.2714 29.96C29.8047 29.4133 29.2447 29.14 28.5914 29.14C27.9381 29.14 27.3781 29.4133 26.9114 29.96C26.4447 30.4933 26.0847 31.22 25.8314 32.14C25.5914 33.0467 25.4714 34.06 25.4714 35.18C25.4714 36.3533 25.5914 37.4 25.8314 38.32C26.0847 39.2267 26.4447 39.9467 26.9114 40.48C27.3781 41 27.9381 41.26 28.5914 41.26ZM40 35.78L39.62 34.04C39.7933 34.0267 40.02 34.0133 40.3 34C40.58 33.9733 40.86 33.9467 41.14 33.92C41.42 33.88 41.6467 33.84 41.82 33.8C42.6467 33.6133 43.32 33.3267 43.84 32.94C44.36 32.54 44.62 32 44.62 31.32C44.62 30.6133 44.4133 30.0533 44 29.64C43.6 29.2267 42.96 29.02 42.08 29.02C41.1867 29.02 40.4533 29.2 39.88 29.56C39.3067 29.92 38.8267 30.3933 38.44 30.98L37 30.32C37.1867 29.7467 37.5 29.2133 37.94 28.72C38.38 28.2133 38.9667 27.8067 39.7 27.5C40.4467 27.18 41.3533 27.02 42.42 27.02C43.4867 27.02 44.3933 27.2 45.14 27.56C45.9 27.9067 46.4733 28.3867 46.86 29C47.26 29.6 47.46 30.28 47.46 31.04C47.46 31.8133 47.22 32.54 46.74 33.22C46.26 33.9 45.5467 34.3533 44.6 34.58C45.2533 34.66 45.84 34.8867 46.36 35.26C46.8933 35.6333 47.3133 36.1133 47.62 36.7C47.94 37.2867 48.1 37.94 48.1 38.66C48.1 40.1133 47.6067 41.26 46.62 42.1C45.6467 42.94 44.1667 43.36 42.18 43.36C40.7267 43.36 39.5333 43.0733 38.6 42.5C37.68 41.9133 36.9333 41.1 36.36 40.06L37.46 38.86C37.9667 39.6733 38.64 40.2867 39.48 40.7C40.32 41.1133 41.2067 41.32 42.14 41.32C43.0867 41.32 43.8467 41.0667 44.42 40.56C44.9933 40.04 45.28 39.3733 45.28 38.56C45.28 37.6933 44.9933 37.0133 44.42 36.52C43.8467 36.0267 43.0867 35.78 42.14 35.78H40Z" fill="#E4E6E9"/>
<defs>
<filter id="filter0_d_44_394" x="0.313721" y="3.38464" width="72.0833" height="72.0833" filterUnits="userSpaceOnUse" color-interpolation-filters="sRGB">
<feFlood flood-opacity="0" result="BackgroundImageFix"/>
<feColorMatrix in="SourceAlpha" type="matrix" values="0 0 0 0 0 0 0 0 0 0 0 0 0 0 0 0 0 0 127 0" result="hardAlpha"/>
<feOffset dy="4"/>
<feGaussianBlur stdDeviation="2"/>
<feComposite in2="hardAlpha" operator="out"/>
<feColorMatrix type="matrix" values="0 0 0 0 0 0 0 0 0 0 0 0 0 0 0 0 0 0 0.25 0"/>
<feBlend mode="normal" in2="BackgroundImageFix" result="effect1_dropShadow_44_394"/>
<feBlend mode="normal" in="SourceGraphic" in2="effect1_dropShadow_44_394" result="shape"/>
</filter>
</defs>
</svg>
