<svg width="73" height="76" viewBox="0 0 73 76" fill="none" xmlns="http://www.w3.org/2000/svg">
<g filter="url(#filter0_d_44_399)">
<rect x="1" y="35.4263" width="50" height="50" rx="8" transform="rotate(-45 1 35.4263)" fill="#8D59C2"/>
</g>
<path d="M28.5914 43.36C27.5114 43.36 26.5247 43.0333 25.6314 42.38C24.7381 41.7267 24.0247 40.7867 23.4914 39.56C22.9714 38.3333 22.7114 36.8733 22.7114 35.18C22.7114 34.02 22.8647 32.9467 23.1714 31.96C23.4781 30.9733 23.8981 30.1133 24.4314 29.38C24.9647 28.6333 25.5847 28.0533 26.2914 27.64C27.0114 27.2267 27.7781 27.02 28.5914 27.02C29.4047 27.02 30.1647 27.2267 30.8714 27.64C31.5914 28.04 32.2181 28.6067 32.7514 29.34C33.2981 30.0733 33.7247 30.94 34.0314 31.94C34.3381 32.9267 34.4914 34.0067 34.4914 35.18C34.4914 36.4067 34.3381 37.52 34.0314 38.52C33.7247 39.52 33.2981 40.3867 32.7514 41.12C32.2181 41.84 31.5914 42.3933 30.8714 42.78C30.1647 43.1667 29.4047 43.36 28.5914 43.36ZM28.5914 41.26C29.2447 41.26 29.8047 41 30.2714 40.48C30.7381 39.9467 31.0981 39.2267 31.3514 38.32C31.6047 37.4 31.7314 36.3533 31.7314 35.18C31.7314 34.0733 31.6047 33.0667 31.3514 32.16C31.0981 31.24 30.7381 30.5067 30.2714 29.96C29.8047 29.4133 29.2447 29.14 28.5914 29.14C27.9381 29.14 27.3781 29.4133 26.9114 29.96C26.4447 30.4933 26.0847 31.22 25.8314 32.14C25.5914 33.0467 25.4714 34.06 25.4714 35.18C25.4714 36.3533 25.5914 37.4 25.8314 38.32C26.0847 39.2267 26.4447 39.9467 26.9114 40.48C27.3781 41 27.9381 41.26 28.5914 41.26ZM45.14 34.28C47.3267 35.1067 48.42 36.5333 48.42 38.56C48.42 39.4667 48.1733 40.2867 47.68 41.02C47.2 41.74 46.5067 42.3133 45.6 42.74C44.7067 43.1533 43.64 43.36 42.4 43.36C41.1867 43.36 40.1333 43.16 39.24 42.76C38.36 42.3467 37.68 41.78 37.2 41.06C36.72 40.3267 36.48 39.4933 36.48 38.56C36.48 38 36.6133 37.4733 36.88 36.98C37.1467 36.4733 37.5133 36.0267 37.98 35.64C38.4467 35.24 38.9733 34.9333 39.56 34.72C38.9067 34.3867 38.4 34.02 38.04 33.62C37.6933 33.2067 37.4467 32.7867 37.3 32.36C37.1667 31.92 37.1 31.4933 37.1 31.08C37.1 30.2533 37.3267 29.54 37.78 28.94C38.2467 28.3267 38.88 27.8533 39.68 27.52C40.48 27.1867 41.3867 27.02 42.4 27.02C43.44 27.02 44.3533 27.1867 45.14 27.52C45.9267 27.84 46.5333 28.3067 46.96 28.92C47.4 29.52 47.62 30.24 47.62 31.08C47.62 31.8267 47.4 32.4733 46.96 33.02C46.52 33.5533 45.9133 33.9733 45.14 34.28ZM42.86 33.62C43.8067 33.3667 44.46 33.0333 44.82 32.62C45.18 32.1933 45.36 31.7467 45.36 31.28C45.36 30.6 45.1 30.0533 44.58 29.64C44.0733 29.2133 43.3467 29 42.4 29C41.5867 29 40.9333 29.22 40.44 29.66C39.96 30.0867 39.72 30.6267 39.72 31.28C39.72 31.8133 39.96 32.2533 40.44 32.6C40.92 32.9467 41.7267 33.2867 42.86 33.62ZM41.66 35.44C40.7933 35.6667 40.12 36.0533 39.64 36.6C39.1733 37.1467 38.94 37.74 38.94 38.38C38.94 39.2733 39.2533 39.9733 39.88 40.48C40.5067 40.9867 41.3533 41.24 42.42 41.24C43.3267 41.24 44.08 40.9933 44.68 40.5C45.28 40.0067 45.58 39.3133 45.58 38.42C45.58 37.9533 45.4533 37.5533 45.2 37.22C44.9467 36.8733 44.5333 36.56 43.96 36.28C43.3867 36 42.62 35.72 41.66 35.44Z" fill="#E4E6E9"/>
<defs>
<filter id="filter0_d_44_399" x="0.313721" y="3.38452" width="72.0833" height="72.0835" filterUnits="userSpaceOnUse" color-interpolation-filters="sRGB">
<feFlood flood-opacity="0" result="BackgroundImageFix"/>
<feColorMatrix in="SourceAlpha" type="matrix" values="0 0 0 0 0 0 0 0 0 0 0 0 0 0 0 0 0 0 127 0" result="hardAlpha"/>
<feOffset dy="4"/>
<feGaussianBlur stdDeviation="2"/>
<feComposite in2="hardAlpha" operator="out"/>
<feColorMatrix type="matrix" values="0 0 0 0 0 0 0 0 0 0 0 0 0 0 0 0 0 0 0.25 0"/>
<feBlend mode="normal" in2="BackgroundImageFix" result="effect1_dropShadow_44_399"/>
<feBlend mode="normal" in="SourceGraphic" in2="effect1_dropShadow_44_399" result="shape"/>
</filter>
</defs>
</svg>
