<svg width="73" height="76" viewBox="0 0 73 76" fill="none" xmlns="http://www.w3.org/2000/svg">
<g filter="url(#filter0_d_44_393)">
<rect x="1" y="35.4263" width="50" height="50" rx="8" transform="rotate(-45 1 35.4263)" fill="#8D59C2"/>
</g>
<path d="M28.5914 43.36C27.5114 43.36 26.5247 43.0333 25.6314 42.38C24.7381 41.7267 24.0247 40.7867 23.4914 39.56C22.9714 38.3333 22.7114 36.8733 22.7114 35.18C22.7114 34.02 22.8647 32.9467 23.1714 31.96C23.4781 30.9733 23.8981 30.1133 24.4314 29.38C24.9647 28.6333 25.5847 28.0533 26.2914 27.64C27.0114 27.2267 27.7781 27.02 28.5914 27.02C29.4047 27.02 30.1647 27.2267 30.8714 27.64C31.5914 28.04 32.2181 28.6067 32.7514 29.34C33.2981 30.0733 33.7247 30.94 34.0314 31.94C34.3381 32.9267 34.4914 34.0067 34.4914 35.18C34.4914 36.4067 34.3381 37.52 34.0314 38.52C33.7247 39.52 33.2981 40.3867 32.7514 41.12C32.2181 41.84 31.5914 42.3933 30.8714 42.78C30.1647 43.1667 29.4047 43.36 28.5914 43.36ZM28.5914 41.26C29.2447 41.26 29.8047 41 30.2714 40.48C30.7381 39.9467 31.0981 39.2267 31.3514 38.32C31.6047 37.4 31.7314 36.3533 31.7314 35.18C31.7314 34.0733 31.6047 33.0667 31.3514 32.16C31.0981 31.24 30.7381 30.5067 30.2714 29.96C29.8047 29.4133 29.2447 29.14 28.5914 29.14C27.9381 29.14 27.3781 29.4133 26.9114 29.96C26.4447 30.4933 26.0847 31.22 25.8314 32.14C25.5914 33.0467 25.4714 34.06 25.4714 35.18C25.4714 36.3533 25.5914 37.4 25.8314 38.32C26.0847 39.2267 26.4447 39.9467 26.9114 40.48C27.3781 41 27.9381 41.26 28.5914 41.26ZM37.38 43L36.96 41.08C38.72 39.4667 40.1933 38.0867 41.38 36.94C42.5667 35.7933 43.4533 34.7867 44.04 33.92C44.64 33.04 44.94 32.2133 44.94 31.44C44.94 30.7067 44.7267 30.1333 44.3 29.72C43.8867 29.3067 43.2667 29.1 42.44 29.1C41.7067 29.1 41.0267 29.2867 40.4 29.66C39.7867 30.0333 39.3 30.5667 38.94 31.26L37.46 30.5C37.6333 29.86 37.9467 29.28 38.4 28.76C38.8533 28.2267 39.4333 27.8067 40.14 27.5C40.86 27.18 41.6933 27.02 42.64 27.02C44.3733 27.02 45.6733 27.4067 46.54 28.18C47.4067 28.94 47.84 29.9667 47.84 31.26C47.84 32.0867 47.66 32.8733 47.3 33.62C46.94 34.3533 46.4067 35.0933 45.7 35.84C45.0067 36.5733 44.1467 37.3533 43.12 38.18C42.0933 39.0067 40.9133 39.9333 39.58 40.96L48.08 40.42V43H37.38Z" fill="#E4E6E9"/>
<defs>
<filter id="filter0_d_44_393" x="0.313721" y="3.38464" width="72.0833" height="72.0833" filterUnits="userSpaceOnUse" color-interpolation-filters="sRGB">
<feFlood flood-opacity="0" result="BackgroundImageFix"/>
<feColorMatrix in="SourceAlpha" type="matrix" values="0 0 0 0 0 0 0 0 0 0 0 0 0 0 0 0 0 0 127 0" result="hardAlpha"/>
<feOffset dy="4"/>
<feGaussianBlur stdDeviation="2"/>
<feComposite in2="hardAlpha" operator="out"/>
<feColorMatrix type="matrix" values="0 0 0 0 0 0 0 0 0 0 0 0 0 0 0 0 0 0 0.25 0"/>
<feBlend mode="normal" in2="BackgroundImageFix" result="effect1_dropShadow_44_393"/>
<feBlend mode="normal" in="SourceGraphic" in2="effect1_dropShadow_44_393" result="shape"/>
</filter>
</defs>
</svg>
