<svg width="82" height="83" viewBox="0 0 82 83" fill="none" xmlns="http://www.w3.org/2000/svg">
<rect x="1.5" y="1.5" width="64" height="63" rx="6.5" stroke="url(#paint0_linear_21_1459)" stroke-width="3"/>
<path d="M66 16H72.5C76.9183 16 80.5 19.5817 80.5 24V73C80.5 77.4183 76.9183 81 72.5 81H25C20.5817 81 17 77.4183 17 73V65.5" stroke="url(#paint1_linear_21_1459)" stroke-width="3"/>
<path d="M7.5 7H14" stroke="url(#paint2_linear_21_1459)" stroke-width="3" stroke-linecap="round"/>
<path d="M42.8905 34.2897L25.5159 44.6075C24.516 45.2013 23.25 44.4807 23.25 43.3178V22.6822C23.25 21.5193 24.516 20.7987 25.5159 21.3925L42.8905 31.7103C43.8693 32.2915 43.8693 33.7085 42.8905 34.2897Z" stroke="url(#paint3_linear_21_1459)" stroke-width="3"/>
<path d="M28 75H75" stroke="url(#paint4_linear_21_1459)" stroke-width="3" stroke-linecap="round"/>
<path d="M24 75H24.2" stroke="url(#paint5_linear_21_1459)" stroke-width="3" stroke-linecap="round"/>
<path d="M18 7H18.2" stroke="url(#paint6_linear_21_1459)" stroke-width="3" stroke-linecap="round"/>
<defs>
<linearGradient id="paint0_linear_21_1459" x1="33.5" y1="0" x2="33.5" y2="66" gradientUnits="userSpaceOnUse">
<stop stop-color="#FF5582"/>
<stop offset="0.364583" stop-color="#FF777F"/>
<stop offset="0.697917" stop-color="#FFA37A"/>
<stop offset="1" stop-color="#FFC776"/>
</linearGradient>
<linearGradient id="paint1_linear_21_1459" x1="48.75" y1="16" x2="48.75" y2="81" gradientUnits="userSpaceOnUse">
<stop stop-color="#FF5582"/>
<stop offset="0.364583" stop-color="#FF777F"/>
<stop offset="0.697917" stop-color="#FFA37A"/>
<stop offset="1" stop-color="#FFC776"/>
</linearGradient>
<linearGradient id="paint2_linear_21_1459" x1="10.75" y1="7" x2="10.75" y2="8" gradientUnits="userSpaceOnUse">
<stop stop-color="#FF5582"/>
<stop offset="0.364583" stop-color="#FF777F"/>
<stop offset="0.697917" stop-color="#FFA37A"/>
<stop offset="1" stop-color="#FFC776"/>
</linearGradient>
<linearGradient id="paint3_linear_21_1459" x1="48" y1="33" x2="13" y2="33" gradientUnits="userSpaceOnUse">
<stop stop-color="#FF5582"/>
<stop offset="0.364583" stop-color="#FF777F"/>
<stop offset="0.697917" stop-color="#FFA37A"/>
<stop offset="1" stop-color="#FFC776"/>
</linearGradient>
<linearGradient id="paint4_linear_21_1459" x1="51.5" y1="75" x2="51.5" y2="76" gradientUnits="userSpaceOnUse">
<stop stop-color="#FF5582"/>
<stop offset="0.364583" stop-color="#FF777F"/>
<stop offset="0.697917" stop-color="#FFA37A"/>
<stop offset="1" stop-color="#FFC776"/>
</linearGradient>
<linearGradient id="paint5_linear_21_1459" x1="24.1" y1="75" x2="24.1" y2="76" gradientUnits="userSpaceOnUse">
<stop stop-color="#FF5582"/>
<stop offset="0.364583" stop-color="#FF777F"/>
<stop offset="0.697917" stop-color="#FFA37A"/>
<stop offset="1" stop-color="#FFC776"/>
</linearGradient>
<linearGradient id="paint6_linear_21_1459" x1="18.1" y1="7" x2="18.1" y2="8" gradientUnits="userSpaceOnUse">
<stop stop-color="#FF5582"/>
<stop offset="0.364583" stop-color="#FF777F"/>
<stop offset="0.697917" stop-color="#FFA37A"/>
<stop offset="1" stop-color="#FFC776"/>
</linearGradient>
</defs>
</svg>
